<?xml version="1.0" standalone="no"?>
<!DOCTYPE svg PUBLIC "-//W3C//DTD SVG 20010904//EN"
 "http://www.w3.org/TR/2001/REC-SVG-20010904/DTD/svg10.dtd">
<svg version="1.0" xmlns="http://www.w3.org/2000/svg"
 width="49.000000pt" height="49.000000pt" viewBox="0 0 49.000000 49.000000"
 preserveAspectRatio="xMidYMid meet">
<metadata>
Created by potrace 1.16, written by Peter Selinger 2001-2019
</metadata>
<g transform="translate(0.000000,49.000000) scale(0.100000,-0.100000)"
fill="#ffffff" stroke="none">
<path d="M0 430 c0 -53 2 -60 20 -60 17 0 19 -8 22 -67 l3 -68 53 -3 52 -3 0
-40 c0 -28 4 -39 15 -39 11 0 15 -12 15 -45 0 -43 -1 -45 -30 -45 -27 0 -30 3
-30 30 l0 30 -60 0 -60 0 0 -60 0 -60 60 0 c53 0 60 2 60 20 0 17 7 20 45 20
l45 0 0 55 0 55 45 0 c51 0 57 -6 20 -20 -15 -6 -25 -17 -25 -30 0 -11 -7 -31
-15 -44 -22 -34 -10 -58 29 -54 35 3 48 36 21 58 -22 19 -18 37 10 44 16 4 25
13 25 26 0 11 5 20 10 20 6 0 10 7 10 15 0 11 11 15 40 15 38 0 40 -2 40 -30
0 -25 -4 -30 -25 -30 -24 0 -25 -3 -25 -60 l0 -60 60 0 60 0 0 60 c0 53 -2 60
-19 60 -16 0 -20 8 -23 43 l-3 42 -52 3 -53 3 0 45 c0 50 6 56 20 19 6 -15 17
-25 30 -25 11 0 31 -7 44 -15 34 -22 58 -10 54 29 -3 35 -36 48 -58 21 -19
-22 -37 -18 -44 10 -4 16 -13 25 -26 25 -11 0 -20 5 -20 10 0 6 -7 10 -15 10
-11 0 -15 11 -15 40 0 38 2 40 30 40 25 0 30 -4 30 -25 0 -24 3 -25 60 -25
l60 0 0 60 0 60 -60 0 c-53 0 -60 -2 -60 -19 0 -16 -8 -20 -42 -23 l-43 -3 -5
-55 c-4 -41 -7 -48 -10 -26 -5 27 -27 47 -79 72 -32 16 -64 -33 -41 -61 16
-19 35 -19 54 1 19 18 36 10 36 -17 0 -16 -7 -19 -45 -19 l-45 0 0 -40 0 -40
-40 0 -40 0 0 55 c0 52 1 55 25 55 24 0 25 3 25 60 l0 60 -60 0 -60 0 0 -60z"/>
</g>
</svg>
